<?xml version="1.0" encoding="utf-8"?>
<!-- Generator: Adobe Illustrator 26.0.2, SVG Export Plug-In . SVG Version: 6.00 Build 0)  -->
<svg version="1.1" id="レイヤー_1" xmlns="http://www.w3.org/2000/svg" xmlns:xlink="http://www.w3.org/1999/xlink" x="0px"
	 y="0px" viewBox="0 0 127.7 25.2" style="enable-background:new 0 0 127.7 25.2;" xml:space="preserve">
<style type="text/css">
	.st0{fill:#455644;}
	.st1{fill:#C3D47D;}
	.st2{fill:#376E58;}
	.st3{fill:#FFFFFF;}
	.st4{fill:#A5BB5A;}
	.st5{fill:#F3E161;}
	.st6{opacity:0.16;fill:#FFFFFF;enable-background:new    ;}
</style>
<g>
	<g>
		<g>
			<path class="st0" d="M28.5,21.3H3.2c-0.4,0-0.7-0.3-0.7-0.7V3.2c0-0.6,0.5-1.1,1.1-1.1h24.9c0.4,0,0.7,0.3,0.7,0.7v17.8
				C29.2,21,28.9,21.3,28.5,21.3z"/>
			<path class="st1" d="M27.5,19.9H4.2c-0.3,0-0.6-0.3-0.6-0.6V4.2c0-0.5,0.4-1,1-1h23c0.3,0,0.6,0.3,0.6,0.6v15.4
				C28.2,19.6,27.9,19.9,27.5,19.9z"/>
			<path class="st2" d="M26.9,23.9H3c-0.4,0-0.7-0.3-0.7-0.7V5.5C2.4,5.1,2.7,4.8,3,4.8h23.9c0.4,0,0.7,0.3,0.7,0.7v17.8
				C27.6,23.6,27.3,23.9,26.9,23.9z"/>
			<g>
				<g>
					<path class="st3" d="M25.4,11.7c-0.2,0-0.3,0.1-0.3,0.3v1.6c0,0.2,0.1,0.3,0.3,0.3s0.3-0.1,0.3-0.3V12
						C25.7,11.8,25.5,11.7,25.4,11.7z M25.4,16.4c-0.2,0-0.3,0.1-0.3,0.3v1.6c0,0.2,0.1,0.3,0.3,0.3s0.3-0.1,0.3-0.3v-1.6
						C25.7,16.5,25.5,16.4,25.4,16.4z M8.9,21.4H7.3c-0.2,0-0.3,0.1-0.3,0.3C7,21.9,7.1,22,7.3,22h1.6c0.2,0,0.3-0.1,0.3-0.3
						C9.1,21.6,9,21.4,8.9,21.4z M4.7,21.4H3.1c-0.2,0-0.3,0.1-0.3,0.3c0,0.2,0.1,0.3,0.3,0.3h1.6C4.9,22,5,21.9,5,21.7
						C5,21.6,4.8,21.4,4.7,21.4z M13.3,21.4h-1.6c-0.2,0-0.3,0.1-0.3,0.3c0,0.2,0.1,0.3,0.3,0.3h1.6c0.2,0,0.3-0.1,0.3-0.3
						C13.5,21.6,13.4,21.4,13.3,21.4z M17.7,21.4h-1.6c-0.2,0-0.3,0.1-0.3,0.3c0,0.2,0.1,0.3,0.3,0.3h1.6c0.2,0,0.3-0.1,0.3-0.3
						C17.9,21.6,17.8,21.4,17.7,21.4z M21.6,21.4H20c-0.2,0-0.3,0.1-0.3,0.3c0,0.2,0.1,0.3,0.3,0.3h1.6c0.2,0,0.3-0.1,0.3-0.3
						C21.9,21.6,21.8,21.4,21.6,21.4z"/>
				</g>
				<path class="st3" d="M23.3,22c-0.2,0-0.3-0.1-0.3-0.3c0-0.2,0.1-0.3,0.3-0.3c0.8,0,1.6-0.5,2-1.2c0.1-0.1,0.2-0.2,0.4-0.1
					c0.1,0.1,0.2,0.2,0.1,0.4C25.2,21.4,24.3,22,23.3,22L23.3,22z"/>
			</g>
			<g>
				<g>
					<path class="st3" d="M25.7,16.3v-1.6c0-0.2-0.1-0.3-0.3-0.3s-0.3,0.1-0.3,0.3v1.6c0,0.2,0.1,0.3,0.3,0.3
						C25.5,16.5,25.7,16.4,25.7,16.3z M25.7,11.5V9.9c0-0.2-0.1-0.3-0.3-0.3s-0.3,0.1-0.3,0.3v1.6c0,0.2,0.1,0.3,0.3,0.3
						C25.5,11.8,25.7,11.7,25.7,11.5z M9.1,6.5c0-0.2-0.1-0.3-0.3-0.3H7.3C7.1,6.2,7,6.3,7,6.5s0.1,0.3,0.3,0.3h1.6
						C9,6.8,9.1,6.6,9.1,6.5z M5,6.5c0-0.2-0.1-0.3-0.3-0.3H3.1c-0.2,0-0.3,0.1-0.3,0.3s0.1,0.3,0.3,0.3h1.6C4.8,6.8,5,6.6,5,6.5z
						 M13.5,6.5c0-0.2-0.1-0.3-0.3-0.3h-1.5c-0.2,0-0.3,0.1-0.3,0.3s0.1,0.3,0.3,0.3h1.6C13.4,6.8,13.5,6.6,13.5,6.5z M17.9,6.5
						c0-0.2-0.1-0.3-0.3-0.3H16c-0.2,0-0.3,0.1-0.3,0.3s0.1,0.3,0.3,0.3h1.7C17.8,6.8,17.9,6.6,17.9,6.5z M21.9,6.5
						c0-0.2-0.1-0.3-0.3-0.3H20c-0.2,0-0.3,0.1-0.3,0.3s0.1,0.3,0.3,0.3h1.6C21.8,6.8,21.9,6.6,21.9,6.5z"/>
				</g>
				<path class="st3" d="M23.3,6.2c1,0,2,0.6,2.4,1.5c0.1,0.1,0,0.3-0.1,0.4c-0.1,0.1-0.3,0-0.4-0.1c-0.4-0.7-1.1-1.2-2-1.2
					c-0.2,0-0.3-0.1-0.3-0.3C23,6.3,23.1,6.2,23.3,6.2L23.3,6.2z"/>
			</g>
			<g>
				<path class="st4" d="M29.2,16.8h-10c-0.3,0-0.6-0.2-0.6-0.6v-4.9c0-0.3,0.2-0.6,0.6-0.6h10V16.8z"/>
				<circle class="st5" cx="23.2" cy="13.8" r="1.6"/>
			</g>
		</g>
		<path class="st6" d="M3.9,2.1c-0.6,0-1.1,0.5-1.1,1.1v1.9C2.7,5.2,2.7,5.3,2.7,5.5v17.8C2.7,23.7,3,24,3.4,24h1.8L27,2.1H3.9z"/>
	</g>
	<g>
		<path class="st3" d="M44.8,21.8c-0.2-0.5-0.2-0.6-0.3-0.9c-1.9,0.3-3.8,0.6-5.7,0.7l-0.3-2.3c0.3,0,0.5,0,1,0v-8.6h0.3l-1.4-1.8
			c0.9-0.7,2.1-1.8,2.7-3.1l2.6,0.3c-0.2,0.4-0.2,0.6-0.4,0.8h3.1v1.7c0.5-0.6,1.2-1.5,1.7-2.9l2.6,0.3c-0.1,0.3-0.1,0.5-0.3,0.8
			h4.3v2.2h-2.6c0.2,0.3,0.4,0.7,0.6,1l-2.6,0.6c-0.5-1.1-0.6-1.3-0.7-1.5h-0.2c-0.3,0.5-0.8,1.1-1.3,1.6h6.2v8.7
			c0,1.3-0.9,1.5-1.4,1.5h-1.9l-0.5-2.7h0.9c0.5,0,0.5-0.1,0.5-0.4V13h-1.8v8.9h-2.4V10.7l-1.8-1.5c0.1-0.1,0.1-0.1,0.2-0.1h-1.4
			c0.1,0.2,0.4,0.7,0.5,1l-2.5,0.5c-0.3-0.8-0.3-1-0.5-1.5h-0.1c-0.7,0.8-1.2,1.3-1.6,1.6h6.3v6.4h-4.7v2.1c0.3,0,1.6-0.2,1.9-0.2
			c-0.2-0.5-0.3-0.7-0.5-1l2.2-0.7c0.8,1.3,1.1,2.1,1.6,3.8L44.8,21.8z M41.9,12.4v0.7h2.3v-0.7H41.9z M41.9,14.6v0.8h2.3v-0.8H41.9
			z"/>
		<path class="st3" d="M58.1,16.1c0,0.4-0.1,3.5-0.6,5.1l-1.7-1.1c0.3-1.2,0.6-2.9,0.6-4.2L58.1,16.1z M55.9,13c0.5,0,0.8,0,1.1,0
			c0.5-0.7,0.7-0.9,0.8-1c-0.2-0.2-0.9-1.3-2.1-2.2L57,7.7c0.2,0.1,0.3,0.2,0.4,0.3c0.5-0.9,0.7-1.3,1.2-2.2l2,0.7
			c-0.2,0.5-0.5,1.1-1.8,3c0.1,0.2,0.3,0.3,0.5,0.6c0.8-1.2,1.2-2,1.5-2.6L63,8.2c-1,1.7-2.2,3.2-3.5,4.7c0.2,0,1.3-0.1,1.5-0.1
			c-0.2-0.7-0.3-0.8-0.4-1.1l1.7-0.6c0.4,0.8,1.1,2.7,1.3,3.6l-2,0.6c-0.1-0.3-0.1-0.4-0.1-0.7c-0.2,0-0.3,0.1-0.8,0.1v7.1h-2.2
			v-6.9c-1.5,0.2-1.9,0.2-2.5,0.2L55.9,13z M62.9,15.7c0.4,1.4,0.5,3,0.6,3.9l-2.1,0.3c0-0.3-0.1-2.8-0.3-4L62.9,15.7z M67.3,6
			c-0.1,0.5-0.2,1-0.5,1.9h4.9c-0.1,7.2-0.1,10.6-0.5,12.2c-0.1,0.6-0.6,1.8-2,1.8h-3.7L65,19.4h3c0.4,0,0.6,0,0.8-0.8
			c0.3-1.3,0.3-5.6,0.4-8.3h-3.4c-0.7,1.4-1.2,1.9-1.7,2.4l-1.7-2c1.1-1.1,2.1-2.9,2.5-4.9L67.3,6z M66,12.2c0.7,1,1.6,2.5,2.1,4.1
			l-2.2,1.2c-0.3-0.9-1.1-2.9-2-4.2L66,12.2z"/>
		<path class="st3" d="M80.2,18.7c1.8-0.1,5.6-0.4,5.6-5c0-2.8-1.6-4-3.6-4.2c-0.1,1.5-0.7,10.4-5.3,10.4c-2.3,0-3.7-2.3-3.7-5
			c0-3.8,2.6-7.9,8.2-7.9c3.9,0,7.2,2.1,7.2,7c0,1.9-0.6,3.9-2.3,5.5c-1.7,1.5-4.2,1.7-5.2,1.8L80.2,18.7z M75.9,14.9
			c0,0.6,0.2,2.2,1.2,2.2c1.3,0,2.3-3.3,2.6-7.4C75.9,10.7,75.9,14.4,75.9,14.9z"/>
		<path class="st3" d="M91.8,5.9C92.4,6.4,93,7,94.4,8.6l-0.3,0.3h4.8V8.3h-4.1V6.5h4.1V5.8h2.5v0.7h4.1v1.8h-4.1v0.6h4.7v1.7h-1.9
			c-0.1,0.4-0.1,0.4-0.4,1h1.8v1.8h-4.3v0.6h4v1.5h-4v0.7h4.6V18h-4.6v1.2h5l-0.5,2.4H97c-0.8,0-2.5-0.2-3.8-1.7
			c-1,1.2-1.8,1.7-2.4,2.2l-0.9-2.8c0.5-0.2,1.1-0.6,1.5-1v-3.8h-1.3v-2.4h3.6v5.2c0.7,1.8,2.5,1.9,3.3,1.9h1.8V18h-4.6v-1.8h4.6
			v-0.7h-4v-1.5h4v-0.6h-4.4v-1.8h1.9c-0.1-0.3-0.2-0.7-0.3-1h-2V8.9l-1.5,1.5C92.2,10,91,8.3,90.1,7.7L91.8,5.9z M98.5,10.7
			c0.1,0.3,0.2,0.7,0.3,1h2.7c0.2-0.4,0.3-0.8,0.3-1H98.5z"/>
		<path class="st3" d="M114.4,5.9h2.8v2.6c0,0.9,0.2,3.5,1.6,6.2c1.5,2.9,4.3,4.3,5.3,4.8l-1.7,2.5c-3-1.7-5.4-4.3-6.6-8
			c-1.1,3.8-3.9,6.4-6.6,8l-1.7-2.4c2.5-1.1,4.4-2.8,5.6-5.2c0.9-1.8,1.4-3.9,1.4-5.9V5.9z"/>
	</g>
	<g>
		<path class="st2" d="M44.1,20.8c-0.2-0.5-0.2-0.6-0.3-0.9c-1.9,0.3-3.8,0.6-5.7,0.7l-0.3-2.3c0.3,0,0.5,0,1,0V9.7H39l-1.4-1.8
			c0.9-0.7,2.1-1.8,2.7-3.1l2.6,0.3c-0.2,0.4-0.2,0.6-0.4,0.8h3.1v1.7c0.5-0.6,1.2-1.5,1.7-2.9l2.6,0.3c-0.1,0.3-0.1,0.5-0.3,0.8
			h4.3v2.2h-2.6c0.2,0.3,0.4,0.7,0.6,1l-2.6,0.6c-0.5-1.1-0.6-1.3-0.7-1.5h-0.2c-0.3,0.5-0.8,1.1-1.3,1.6h6.2v8.7
			c0,1.3-0.9,1.5-1.4,1.5H50l-0.5-2.7h0.9c0.5,0,0.5-0.1,0.5-0.4V12h-1.8v8.9h-2.4V9.8L45,8.3c0.1-0.1,0.1-0.1,0.2-0.1h-1.4
			c0.1,0.2,0.4,0.7,0.5,1l-2.5,0.5c-0.3-0.8-0.3-1-0.5-1.5h-0.1c-0.7,0.8-1.2,1.3-1.6,1.6h6.3v6.4h-4.7v2.1c0.3,0,1.6-0.2,1.9-0.2
			c-0.2-0.5-0.3-0.7-0.5-1l2.2-0.7c0.8,1.3,1.1,2.1,1.6,3.8L44.1,20.8z M41.1,11.4v0.7h2.3v-0.7H41.1z M41.1,13.6v0.8h2.3v-0.8H41.1
			z"/>
		<path class="st2" d="M57.3,15.1c0,0.4-0.1,3.5-0.6,5.1L55,19.1c0.3-1.2,0.6-2.9,0.6-4.2L57.3,15.1z M55.2,12c0.5,0,0.8,0,1.1,0
			c0.5-0.7,0.7-0.9,0.8-1c-0.2-0.2-0.9-1.3-2.1-2.2l1.2-2.1c0.2,0.1,0.3,0.2,0.4,0.3c0.5-0.9,0.7-1.3,1.2-2.2l2,0.7
			c-0.2,0.5-0.5,1.1-1.8,3c0.1,0.2,0.3,0.3,0.5,0.6c0.8-1.2,1.2-2,1.5-2.6l2.1,0.8c-1,1.7-2.2,3.2-3.5,4.7c0.2,0,1.3-0.1,1.5-0.1
			C60,11.1,60,11,59.9,10.7l1.7-0.6c0.4,0.8,1.1,2.7,1.3,3.6l-2,0.6c-0.1-0.3-0.1-0.4-0.1-0.7c-0.2,0-0.3,0.1-0.8,0.1V21h-2.2v-6.9
			c-1.5,0.2-1.9,0.2-2.5,0.2L55.2,12z M62.1,14.7c0.4,1.4,0.5,3,0.6,3.9L60.6,19c0-0.3-0.1-2.8-0.3-4L62.1,14.7z M66.5,5
			C66.4,5.5,66.3,6,66,7h4.9c-0.1,7.2-0.1,10.6-0.5,12.2c-0.1,0.6-0.6,1.8-2,1.8h-3.7l-0.5-2.5h3c0.4,0,0.6,0,0.8-0.8
			c0.3-1.3,0.3-5.6,0.4-8.3h-3.4c-0.7,1.4-1.2,1.9-1.7,2.4l-1.7-2c1.1-1.1,2.1-2.9,2.5-4.9L66.5,5z M65.2,11.2
			c0.7,1,1.6,2.5,2.1,4.1l-2.2,1.2c-0.3-0.9-1.1-2.9-2-4.2L65.2,11.2z"/>
		<path class="st2" d="M79.4,17.7c1.8-0.1,5.6-0.4,5.6-5c0-2.8-1.6-4-3.6-4.2c-0.1,1.5-0.7,10.4-5.3,10.4c-2.3,0-3.7-2.3-3.7-5
			c0-3.8,2.6-7.9,8.2-7.9c3.9,0,7.2,2.1,7.2,7c0,1.9-0.6,3.9-2.3,5.5c-1.7,1.5-4.2,1.7-5.2,1.8L79.4,17.7z M75.1,13.9
			c0,0.6,0.2,2.2,1.2,2.2c1.3,0,2.3-3.3,2.6-7.4C75.1,9.7,75.1,13.4,75.1,13.9z"/>
		<path class="st2" d="M91,4.9c0.6,0.5,1.3,1.1,2.6,2.7l-0.3,0.3h4.8V7.3H94V5.5h4.1V4.9h2.5v0.7h4.1v1.8h-4.1v0.6h4.7v1.7h-1.9
			c-0.1,0.4-0.1,0.4-0.4,1h1.8v1.8h-4.3v0.6h4v1.5h-4v0.7h4.6V17h-4.6v1.2h5l-0.5,2.4h-8.9c-0.8,0-2.5-0.2-3.8-1.7
			c-1,1.2-1.8,1.7-2.4,2.2l-0.9-2.8c0.5-0.2,1.1-0.6,1.5-1v-3.8h-1.3v-2.4H93v5.2c0.7,1.8,2.5,1.9,3.3,1.9h1.8V17h-4.6v-1.8h4.6
			v-0.7h-4v-1.5h4v-0.6h-4.4v-1.8h1.9c-0.1-0.3-0.2-0.7-0.3-1h-2V8l-1.5,1.5c-0.3-0.5-1.6-2.1-2.4-2.8L91,4.9z M97.7,9.7
			c0.1,0.3,0.2,0.7,0.3,1h2.7c0.2-0.4,0.3-0.8,0.3-1H97.7z"/>
		<path class="st2" d="M113.6,4.9h2.8v2.6c0,0.9,0.2,3.5,1.6,6.2c1.5,2.9,4.3,4.3,5.3,4.8l-1.7,2.5c-3-1.7-5.4-4.3-6.6-8
			c-1.1,3.8-3.9,6.4-6.6,8l-1.7-2.4c2.5-1.1,4.4-2.8,5.6-5.2c0.9-1.8,1.4-3.9,1.4-5.9V4.9z"/>
	</g>
</g>
</svg>
